<svg width="17" height="18" viewBox="0 0 17 18" fill="none" xmlns="http://www.w3.org/2000/svg">
<path opacity="0.78" fill-rule="evenodd" clip-rule="evenodd" d="M7.70069 5.88917C7.71238 5.73721 7.83909 5.61987 7.9915 5.61987H8.23523C8.38508 5.61987 8.51054 5.73342 8.52545 5.88252L8.88807 9.50876L11.4633 10.9803C11.5542 11.0323 11.6103 11.1289 11.6103 11.2336V11.4602C11.6103 11.6525 11.4274 11.7922 11.2419 11.7416L7.56507 10.7389C7.4301 10.702 7.34028 10.5746 7.35101 10.4351L7.70069 5.88917Z" fill="#FF9066"/>
<path opacity="0.901274" fill-rule="evenodd" clip-rule="evenodd" d="M4.25299 0.741334C4.09893 0.557731 3.80146 0.628006 3.74585 0.861142L2.793 4.85589C2.74769 5.04585 2.89823 5.22581 3.09321 5.21476L7.20265 4.98189C7.44234 4.9683 7.56389 4.68712 7.40957 4.50321L6.35875 3.25089C7.03841 3.01857 7.75913 2.89723 8.49919 2.89723C12.1504 2.89723 15.1103 5.85712 15.1103 9.50834C15.1103 13.1596 12.1504 16.1195 8.49919 16.1195C4.84797 16.1195 1.88807 13.1596 1.88807 9.50834C1.88807 8.89539 1.97108 8.29506 2.13293 7.71806L0.635179 7.29794C0.437982 8.00096 0.33252 8.74233 0.33252 9.50834C0.33252 14.0187 3.98886 17.675 8.49919 17.675C13.0095 17.675 16.6659 14.0187 16.6659 9.50834C16.6659 4.99802 13.0095 1.34167 8.49919 1.34167C7.36448 1.34167 6.28382 1.57309 5.30184 1.99131L4.25299 0.741334Z" fill="#FF9066"/>
</svg>
