<svg width="28" height="21" viewBox="0 0 28 21" fill="none" xmlns="http://www.w3.org/2000/svg">
<path opacity="0.587821" fill-rule="evenodd" clip-rule="evenodd" d="M5.79932 4.93939C5.79932 7.44608 7.83139 9.47815 10.3381 9.47815C12.8448 9.47815 14.8768 7.44608 14.8768 4.93939C14.8768 2.43271 12.8448 0.400635 10.3381 0.400635C7.83139 0.400635 5.79932 2.43271 5.79932 4.93939ZM17.1464 9.47823C17.1464 11.3582 18.6704 12.8823 20.5504 12.8823C22.4305 12.8823 23.9545 11.3582 23.9545 9.47823C23.9545 7.59822 22.4305 6.07416 20.5504 6.07416C18.6704 6.07416 17.1464 7.59822 17.1464 9.47823Z" fill="#8280FF"/>
<path fill-rule="evenodd" clip-rule="evenodd" d="M10.3183 11.7468C4.96095 11.7468 0.565553 14.5002 0.125739 19.9157C0.101782 20.2107 0.66592 20.8243 0.950489 20.8243H19.6946C20.547 20.8243 20.5603 20.1384 20.547 19.9166C20.2145 14.3489 15.751 11.7468 10.3183 11.7468ZM20.096 14.0156C21.5203 15.9119 22.3643 18.2689 22.3644 20.823H26.7408C27.3564 20.823 27.366 20.3086 27.3564 20.1422C27.1188 16.0116 23.962 14.0574 20.096 14.0156Z" fill="#8280FF"/>
</svg>
