<svg width="23" height="26" viewBox="0 0 23 26" fill="none" xmlns="http://www.w3.org/2000/svg">
<path d="M20.0466 2.50582H14.8094C14.2832 1.05245 12.905 0 11.2762 0C9.64742 0 8.26921 1.05245 7.74299 2.50582H2.50582C1.12762 2.50582 0 3.63344 0 5.01165V22.5524C0 23.9306 1.12762 25.0582 2.50582 25.0582H20.0466C21.4248 25.0582 22.5524 23.9306 22.5524 22.5524V5.01165C22.5524 3.63344 21.4248 2.50582 20.0466 2.50582ZM11.2762 2.50582C11.9653 2.50582 12.5291 3.06963 12.5291 3.75873C12.5291 4.44784 11.9653 5.01165 11.2762 5.01165C10.5871 5.01165 10.0233 4.44784 10.0233 3.75873C10.0233 3.06963 10.5871 2.50582 11.2762 2.50582ZM13.782 20.0466H5.01164V17.5408H13.782V20.0466ZM17.5408 15.0349H5.01164V12.5291H17.5408V15.0349ZM17.5408 10.0233H5.01164V7.51747H17.5408V10.0233Z" fill="#FEC53D"/>
</svg>
