<svg width="15" height="15" viewBox="0 0 15 15" fill="none" xmlns="http://www.w3.org/2000/svg">
<path opacity="0.587821" d="M7.96804 6.50396C6.24983 6.50396 4.85693 5.11107 4.85693 3.39285C4.85693 1.67463 6.24983 0.281738 7.96804 0.281738C9.68626 0.281738 11.0792 1.67463 11.0792 3.39285C11.0792 5.11107 9.68626 6.50396 7.96804 6.50396Z" fill="#8280FF"/>
<path d="M0.967792 13.6585C1.26926 9.94637 4.28211 8.05908 7.95433 8.05908C11.6782 8.05908 14.7377 9.84268 14.9657 13.6591C14.9747 13.8111 14.9657 14.2813 14.3814 14.2813C11.4993 14.2813 7.21652 14.2813 1.53312 14.2813C1.33806 14.2813 0.95137 13.8607 0.967792 13.6585Z" fill="#8280FF"/>
</svg>
