<svg width="17" height="17" viewBox="0 0 17 17" fill="none" xmlns="http://www.w3.org/2000/svg">
<path d="M2.41149 15.1147H16.0226C16.5238 15.1147 16.93 15.521 16.93 16.0221C16.93 16.5233 16.5238 16.9295 16.0226 16.9295H1.50409C1.00294 16.9295 0.59668 16.5233 0.59668 16.0221V1.5036C0.59668 1.00245 1.00294 0.596191 1.50409 0.596191C2.00523 0.596191 2.41149 1.00245 2.41149 1.5036V15.1147Z" fill="#4AD991"/>
<path opacity="0.5" d="M5.79498 11.1984C5.45223 11.564 4.87799 11.5826 4.51238 11.2398C4.14678 10.897 4.12825 10.3228 4.47101 9.9572L7.87379 6.32757C8.20527 5.97398 8.75611 5.94332 9.12479 6.25793L11.8105 8.54971L15.3097 4.11739C15.6202 3.72405 16.1908 3.65692 16.5842 3.96745C16.9775 4.27799 17.0446 4.84859 16.7341 5.24193L12.6508 10.4142C12.3318 10.8181 11.7411 10.8762 11.3495 10.5421L8.60549 8.20055L5.79498 11.1984Z" fill="#4AD991"/>
</svg>
