<svg width="23" height="22" viewBox="0 0 23 22" fill="none" xmlns="http://www.w3.org/2000/svg">
<path d="M13.7182 19.3127V14.8303C13.7182 14.3352 13.3169 13.9338 12.8217 13.9338H10.1323C9.63721 13.9338 9.23584 14.3352 9.23584 14.8303V19.3127" stroke="#2D9CDB" stroke-width="1.79295" stroke-linecap="round" stroke-linejoin="round"/>
<path d="M5.20166 10.3479V15.7268C5.20166 17.4172 5.20166 18.2624 5.7268 18.7875C6.25195 19.3127 7.09715 19.3127 8.78756 19.3127H14.1664C15.8568 19.3127 16.702 19.3127 17.2272 18.7875C17.7523 18.2624 17.7523 17.4172 17.7523 15.7268V10.3479" stroke="#2D9CDB" stroke-width="1.79295"/>
<path d="M4.86212 4.53436C5.02518 3.88213 5.10671 3.55601 5.34989 3.36614C5.59307 3.17627 5.92922 3.17627 6.60154 3.17627H16.3524C17.0247 3.17627 17.3609 3.17627 17.6041 3.36614C17.8472 3.55601 17.9288 3.88213 18.0918 4.53437L19.1708 8.85041C19.2577 9.19767 19.3011 9.37131 19.2915 9.51234C19.2666 9.87804 19.0217 10.1918 18.6729 10.3046C18.5384 10.3481 18.3553 10.3481 17.9891 10.3481V10.3481C17.5111 10.3481 17.2721 10.3481 17.0714 10.3013C16.5091 10.1703 16.0443 9.77657 15.8226 9.24345C15.7435 9.05316 15.7051 8.82277 15.6283 8.36199V8.36199C15.6068 8.23307 15.5961 8.16861 15.5839 8.15165C15.5482 8.10186 15.4741 8.10186 15.4383 8.15165C15.4261 8.16861 15.4154 8.23307 15.3939 8.36199L15.3208 8.80059C15.313 8.84708 15.3092 8.87033 15.3053 8.8907C15.1471 9.721 14.4305 10.3281 13.5855 10.3476C13.5647 10.3481 13.5412 10.3481 13.494 10.3481V10.3481C13.4469 10.3481 13.4233 10.3481 13.4026 10.3476C12.5576 10.3281 11.841 9.721 11.6828 8.8907C11.6789 8.87033 11.675 8.84708 11.6673 8.80059L11.5942 8.36199C11.5727 8.23307 11.562 8.16861 11.5498 8.15165C11.514 8.10186 11.4399 8.10186 11.4042 8.15165C11.392 8.16861 11.3812 8.23307 11.3597 8.36199L11.2866 8.80059C11.2789 8.84708 11.275 8.87033 11.2711 8.8907C11.1129 9.721 10.3963 10.3281 9.55133 10.3476C9.53061 10.3481 9.50704 10.3481 9.4599 10.3481V10.3481C9.41276 10.3481 9.38919 10.3481 9.36847 10.3476C8.52346 10.3281 7.80686 9.721 7.64866 8.8907C7.64478 8.87033 7.6409 8.84708 7.63315 8.80059L7.56006 8.36199C7.53857 8.23307 7.52783 8.16861 7.51564 8.15165C7.47987 8.10186 7.40579 8.10186 7.37002 8.15165C7.35784 8.16861 7.34709 8.23307 7.32561 8.36199V8.36199C7.24881 8.82277 7.21041 9.05316 7.1313 9.24345C6.90964 9.77657 6.44483 10.1703 5.88253 10.3013C5.68182 10.3481 5.44284 10.3481 4.96489 10.3481V10.3481C4.59864 10.3481 4.41552 10.3481 4.28102 10.3046C3.93226 10.1918 3.6873 9.87804 3.66246 9.51234C3.65288 9.37131 3.69629 9.19767 3.78311 8.85041L4.86212 4.53436Z" stroke="#2D9CDB" stroke-width="1.79295"/>
</svg>
