<svg width="27" height="42" viewBox="0 0 27 42" fill="none" xmlns="http://www.w3.org/2000/svg">
<rect y="11.5715" width="27" height="18" fill="white"/>
<path d="M15.9118 19.9906V22.4114H12.0487V20.1193C12.0487 19.4841 11.8598 19.0205 11.4821 18.7286C11.1216 18.4367 10.6408 18.2908 10.0399 18.2908C9.62784 18.2908 9.24153 18.3423 8.88098 18.4453C8.5376 18.5483 8.21997 18.6771 7.92809 18.8316V22.4114H4.03926V18.3938C4.03926 17.9646 4.13369 17.6126 4.32255 17.3379C4.51141 17.046 4.77754 16.7799 5.12092 16.5395C5.67034 16.1618 6.37427 15.8528 7.23273 15.6124C8.0912 15.372 9.04409 15.2518 10.0914 15.2518C11.9457 15.2518 13.3793 15.6639 14.3923 16.488C15.4053 17.295 15.9118 18.4625 15.9118 19.9906ZM4.03926 21.2267H7.92809V27.9742C7.7564 28.0258 7.50744 28.0687 7.18123 28.103C6.87218 28.1545 6.53738 28.1803 6.17683 28.1803C5.43855 28.1803 4.89772 28.0515 4.55434 27.794C4.21095 27.5364 4.03926 27.0643 4.03926 26.3775V21.2267ZM12.0487 21.2267H15.9118V27.9742C15.7401 28.0258 15.4997 28.0687 15.1907 28.103C14.8816 28.1545 14.5468 28.1803 14.1863 28.1803C13.4308 28.1803 12.8814 28.0515 12.538 27.794C12.2118 27.5364 12.0487 27.0643 12.0487 26.3775V21.2267Z" fill="black"/>
<mask id="path-3-outside-1_133_221" maskUnits="userSpaceOnUse" x="11.5713" y="13" width="15" height="17" fill="black">
<rect fill="white" x="11.5713" y="13" width="15" height="17"/>
<path d="M24.9118 19.9906V22.4114H21.0487V20.1193C21.0487 19.4841 20.8598 19.0205 20.4821 18.7286C20.1216 18.4367 19.6408 18.2908 19.0399 18.2908C18.6278 18.2908 18.2415 18.3423 17.881 18.4453C17.5376 18.5483 17.22 18.6771 16.9281 18.8316V22.4114H13.0393V18.3938C13.0393 17.9646 13.1337 17.6126 13.3226 17.3379C13.5114 17.046 13.7775 16.7799 14.1209 16.5395C14.6703 16.1618 15.3743 15.8528 16.2327 15.6124C17.0912 15.372 18.0441 15.2518 19.0914 15.2518C20.9457 15.2518 22.3793 15.6639 23.3923 16.488C24.4053 17.295 24.9118 18.4625 24.9118 19.9906ZM13.0393 21.2267H16.9281V27.9742C16.7564 28.0258 16.5074 28.0687 16.1812 28.103C15.8722 28.1545 15.5374 28.1803 15.1768 28.1803C14.4386 28.1803 13.8977 28.0515 13.5543 27.794C13.211 27.5364 13.0393 27.0643 13.0393 26.3775V21.2267ZM21.0487 21.2267H24.9118V27.9742C24.7401 28.0258 24.4997 28.0687 24.1907 28.103C23.8816 28.1545 23.5468 28.1803 23.1863 28.1803C22.4308 28.1803 21.8814 28.0515 21.538 27.794C21.2118 27.5364 21.0487 27.0643 21.0487 26.3775V21.2267Z"/>
</mask>
<path d="M24.9118 19.9906V22.4114H21.0487V20.1193C21.0487 19.4841 20.8598 19.0205 20.4821 18.7286C20.1216 18.4367 19.6408 18.2908 19.0399 18.2908C18.6278 18.2908 18.2415 18.3423 17.881 18.4453C17.5376 18.5483 17.22 18.6771 16.9281 18.8316V22.4114H13.0393V18.3938C13.0393 17.9646 13.1337 17.6126 13.3226 17.3379C13.5114 17.046 13.7775 16.7799 14.1209 16.5395C14.6703 16.1618 15.3743 15.8528 16.2327 15.6124C17.0912 15.372 18.0441 15.2518 19.0914 15.2518C20.9457 15.2518 22.3793 15.6639 23.3923 16.488C24.4053 17.295 24.9118 18.4625 24.9118 19.9906ZM13.0393 21.2267H16.9281V27.9742C16.7564 28.0258 16.5074 28.0687 16.1812 28.103C15.8722 28.1545 15.5374 28.1803 15.1768 28.1803C14.4386 28.1803 13.8977 28.0515 13.5543 27.794C13.211 27.5364 13.0393 27.0643 13.0393 26.3775V21.2267ZM21.0487 21.2267H24.9118V27.9742C24.7401 28.0258 24.4997 28.0687 24.1907 28.103C23.8816 28.1545 23.5468 28.1803 23.1863 28.1803C22.4308 28.1803 21.8814 28.0515 21.538 27.794C21.2118 27.5364 21.0487 27.0643 21.0487 26.3775V21.2267Z" fill="#EC4E1F"/>
<path d="M24.9118 22.4114V23.6971H26.1975V22.4114H24.9118ZM21.0487 22.4114H19.763V23.6971H21.0487V22.4114ZM20.4821 18.7286L19.6732 19.7279L19.6845 19.7371L19.696 19.746L20.4821 18.7286ZM17.881 18.4453L17.5278 17.2091L17.5196 17.2114L17.5115 17.2138L17.881 18.4453ZM16.9281 18.8316L16.3265 17.6953L15.6424 18.0575V18.8316H16.9281ZM16.9281 22.4114V23.6971H18.2138V22.4114H16.9281ZM13.0393 22.4114H11.7535V23.6971H13.0393V22.4114ZM13.3226 17.3379L14.382 18.0663L14.3922 18.0515L14.402 18.0364L13.3226 17.3379ZM14.1209 16.5395L13.3925 15.48L13.3836 15.4862L14.1209 16.5395ZM16.2327 15.6124L15.8861 14.3743L15.8861 14.3743L16.2327 15.6124ZM23.3923 16.488L22.5809 17.4854L22.5912 17.4937L23.3923 16.488ZM13.0393 21.2267V19.941H11.7535V21.2267H13.0393ZM16.9281 21.2267H18.2138V19.941H16.9281V21.2267ZM16.9281 27.9742L17.2975 29.2057L18.2138 28.9309V27.9742H16.9281ZM16.1812 28.103L16.0466 26.8244L16.0081 26.8284L15.9699 26.8348L16.1812 28.103ZM13.5543 27.794L14.3258 26.7654L14.3258 26.7654L13.5543 27.794ZM21.0487 21.2267V19.941H19.763V21.2267H21.0487ZM24.9118 21.2267H26.1975V19.941H24.9118V21.2267ZM24.9118 27.9742L25.2812 29.2057L26.1975 28.9309V27.9742H24.9118ZM24.1907 28.103L24.0487 26.8252L24.0139 26.829L23.9793 26.8348L24.1907 28.103ZM21.538 27.794L20.7413 28.8031L20.7538 28.813L20.7666 28.8225L21.538 27.794ZM23.6261 19.9906V22.4114H26.1975V19.9906H23.6261ZM24.9118 21.1257H21.0487V23.6971H24.9118V21.1257ZM22.3344 22.4114V20.1193H19.763V22.4114H22.3344ZM22.3344 20.1193C22.3344 19.2281 22.0587 18.322 21.2683 17.7112L19.696 19.746C19.6965 19.7464 19.7032 19.7479 19.7164 19.7803C19.7336 19.8227 19.763 19.925 19.763 20.1193H22.3344ZM21.2911 17.7293C20.6414 17.2034 19.8472 17.0051 19.0399 17.0051V19.5765C19.4344 19.5765 19.6017 19.6701 19.6732 19.7279L21.2911 17.7293ZM19.0399 17.0051C18.5201 17.0051 18.0139 17.0702 17.5278 17.2091L18.2342 19.6816C18.4692 19.6144 18.7356 19.5765 19.0399 19.5765V17.0051ZM17.5115 17.2138C17.0946 17.3389 16.6985 17.4984 16.3265 17.6953L17.5297 19.9679C17.7415 19.8558 17.9806 19.7578 18.2504 19.6768L17.5115 17.2138ZM15.6424 18.8316V22.4114H18.2138V18.8316H15.6424ZM16.9281 21.1257H13.0393V23.6971H16.9281V21.1257ZM14.325 22.4114V18.3938H11.7535V22.4114H14.325ZM14.325 18.3938C14.325 18.1502 14.3777 18.0726 14.382 18.0663L12.2631 16.6095C11.8897 17.1526 11.7535 17.7789 11.7535 18.3938H14.325ZM14.402 18.0364C14.4843 17.9092 14.6234 17.7572 14.8582 17.5928L13.3836 15.4862C12.9316 15.8026 12.5385 16.1829 12.2431 16.6394L14.402 18.0364ZM14.8493 17.599C15.2503 17.3233 15.8142 17.0648 16.5794 16.8505L15.8861 14.3743C14.9344 14.6408 14.0903 15.0003 13.3925 15.4801L14.8493 17.599ZM16.5794 16.8505C17.3074 16.6467 18.1414 16.5376 19.0914 16.5376V13.9661C17.9468 13.9661 16.875 14.0974 15.8861 14.3743L16.5794 16.8505ZM19.0914 16.5376C20.7718 16.5376 21.8765 16.9123 22.5809 17.4854L24.2037 15.4907C22.8821 14.4155 21.1196 13.9661 19.0914 13.9661V16.5376ZM22.5912 17.4937C23.2413 18.0115 23.6261 18.7753 23.6261 19.9906H26.1975C26.1975 18.1497 25.5693 16.5785 24.1934 15.4824L22.5912 17.4937ZM13.0393 22.5125H16.9281V19.941H13.0393V22.5125ZM15.6424 21.2267V27.9742H18.2138V21.2267H15.6424ZM16.5586 26.7428C16.5022 26.7597 16.3471 26.7927 16.0466 26.8244L16.3158 29.3817C16.6678 29.3446 17.0106 29.2918 17.2975 29.2057L16.5586 26.7428ZM15.9699 26.8348C15.7402 26.8731 15.4769 26.8946 15.1768 26.8946V29.466C15.5979 29.466 16.0042 29.436 16.3926 29.3712L15.9699 26.8348ZM15.1768 26.8946C14.8774 26.8946 14.6623 26.868 14.5153 26.8329C14.3679 26.7979 14.3215 26.7622 14.3258 26.7654L12.7829 28.8225C13.4591 29.3297 14.3402 29.466 15.1768 29.466V26.8946ZM14.3258 26.7654C14.3859 26.8105 14.3917 26.8496 14.3763 26.8073C14.3567 26.7533 14.325 26.6223 14.325 26.3775H11.7535C11.7535 27.224 11.9602 28.2055 12.7829 28.8225L14.3258 26.7654ZM14.325 26.3775V21.2267H11.7535V26.3775H14.325ZM21.0487 22.5125H24.9118V19.941H21.0487V22.5125ZM23.6261 21.2267V27.9742H26.1975V21.2267H23.6261ZM24.5423 26.7428C24.4797 26.7616 24.3279 26.7941 24.0487 26.8252L24.3327 29.3809C24.6715 29.3432 25.0005 29.2899 25.2812 29.2057L24.5423 26.7428ZM23.9793 26.8348C23.7496 26.8731 23.4863 26.8946 23.1863 26.8946V29.466C23.6073 29.466 24.0136 29.436 24.402 29.3712L23.9793 26.8348ZM23.1863 26.8946C22.8763 26.8946 22.6535 26.8676 22.501 26.8319C22.3475 26.7959 22.3017 26.7596 22.3095 26.7654L20.7666 28.8225C21.4465 29.3325 22.3405 29.466 23.1863 29.466V26.8946ZM22.3347 26.7848C22.4005 26.8368 22.4039 26.8779 22.3863 26.8269C22.3652 26.7659 22.3344 26.6277 22.3344 26.3775H19.763C19.763 27.2047 19.951 28.1792 20.7413 28.8031L22.3347 26.7848ZM22.3344 26.3775V21.2267H19.763V26.3775H22.3344Z" fill="white" mask="url(#path-3-outside-1_133_221)"/>
</svg>
